<svg width="16" height="19" viewBox="0 0 16 19" fill="none" xmlns="http://www.w3.org/2000/svg">
<g id="Vector">
<path id="Vector_2" d="M1.61457 18.0569C1.17088 18.0569 0.790869 17.9124 0.474532 17.6234C0.158177 17.3343 0 16.9871 0 16.5818V4.70947C0 4.54131 0.062366 4.40054 0.187098 4.28714C0.311813 4.17373 0.466644 4.11703 0.651591 4.11703C0.836539 4.11703 0.990329 4.17373 1.11296 4.28714C1.2356 4.40054 1.29691 4.54131 1.29691 4.70947V16.5818C1.29691 16.6543 1.33 16.7208 1.39616 16.7813C1.46235 16.8418 1.53515 16.872 1.61457 16.872H11.3972C11.5812 16.872 11.7353 16.929 11.8594 17.0429C11.9836 17.1569 12.0456 17.2983 12.0456 17.4673C12.0456 17.6363 11.9836 17.7768 11.8594 17.8888C11.7353 18.0009 11.5812 18.0569 11.3972 18.0569H1.61457ZM4.72455 15.2155C4.28088 15.2155 3.90087 15.071 3.58451 14.7819C3.26816 14.4929 3.10998 14.1457 3.10998 13.7404V2.08448C3.10998 1.67913 3.26816 1.33193 3.58451 1.0429C3.90087 0.753883 4.28088 0.609375 4.72455 0.609375H14.3854C14.8291 0.609375 15.2091 0.753883 15.5255 1.0429C15.8418 1.33193 16 1.67913 16 2.08448V13.7404C16 14.1457 15.8418 14.4929 15.5255 14.7819C15.2091 15.071 14.8291 15.2155 14.3854 15.2155H4.72455ZM4.72455 14.0306H14.3854C14.4649 14.0306 14.5376 14.0004 14.6038 13.9399C14.67 13.8794 14.7031 13.8129 14.7031 13.7404V2.08448C14.7031 2.01194 14.67 1.94543 14.6038 1.88496C14.5376 1.82451 14.4649 1.79428 14.3854 1.79428H4.72455C4.64513 1.79428 4.57234 1.82451 4.50617 1.88496C4.43999 1.94543 4.40689 2.01194 4.40689 2.08448V13.7404C4.40689 13.8129 4.43999 13.8794 4.50617 13.9399C4.57234 14.0004 4.64513 14.0306 4.72455 14.0306Z" fill="#333333"/>
</g>
</svg>
