<svg width="40" height="40" viewBox="0 0 40 40" fill="none" xmlns="http://www.w3.org/2000/svg">
<g id="Group">
<path id="Vector" d="M30.625 0H9.375C4.19733 0 0 4.19733 0 9.375V30.625C0 35.8027 4.19733 40 9.375 40H30.625C35.8027 40 40 35.8027 40 30.625V9.375C40 4.19733 35.8027 0 30.625 0Z" fill="url(#paint0_radial_510_2959)"/>
<path id="Vector_2" d="M30.625 0H9.375C4.19733 0 0 4.19733 0 9.375V30.625C0 35.8027 4.19733 40 9.375 40H30.625C35.8027 40 40 35.8027 40 30.625V9.375C40 4.19733 35.8027 0 30.625 0Z" fill="url(#paint1_radial_510_2959)"/>
<path id="Vector_3" d="M20.0015 4.375C15.758 4.375 15.2254 4.39359 13.5588 4.46938C11.8954 4.54563 10.7599 4.80891 9.76647 5.19531C8.73866 5.59437 7.86694 6.12828 6.9985 6.99703C6.12928 7.86562 5.59537 8.73734 5.19506 9.76469C4.80756 10.7584 4.54397 11.8944 4.46912 13.557C4.39459 15.2237 4.37506 15.7566 4.37506 20.0002C4.37506 24.2438 4.39381 24.7747 4.46944 26.4412C4.546 28.1047 4.80928 29.2402 5.19537 30.2336C5.59475 31.2614 6.12866 32.1331 6.99741 33.0016C7.86569 33.8708 8.73741 34.4059 9.76444 34.805C10.7587 35.1914 11.8943 35.4547 13.5574 35.5309C15.2241 35.6067 15.7563 35.6253 19.9996 35.6253C24.2435 35.6253 24.7744 35.6067 26.441 35.5309C28.1044 35.4547 29.2412 35.1914 30.2354 34.805C31.2627 34.4059 32.1332 33.8708 33.0013 33.0016C33.8705 32.1331 34.4043 31.2614 34.8048 30.2341C35.1888 29.2402 35.4526 28.1044 35.5307 26.4416C35.6055 24.775 35.6251 24.2438 35.6251 20.0002C35.6251 15.7566 35.6055 15.2241 35.5307 13.5573C35.4526 11.8939 35.1888 10.7586 34.8048 9.76516C34.4043 8.73734 33.8705 7.86562 33.0013 6.99703C32.1323 6.12797 31.263 5.59406 30.2344 5.19547C29.2383 4.80891 28.1022 4.54547 26.4388 4.46938C24.7721 4.39359 24.2415 4.375 19.9966 4.375H20.0015ZM18.5998 7.19078C19.0158 7.19016 19.4801 7.19078 20.0015 7.19078C24.1735 7.19078 24.6679 7.20578 26.3154 7.28063C27.8388 7.35031 28.6657 7.60484 29.2165 7.81875C29.9457 8.10188 30.4655 8.44047 31.0121 8.9875C31.559 9.53438 31.8974 10.0552 32.1813 10.7844C32.3952 11.3344 32.6501 12.1613 32.7194 13.6847C32.7943 15.3319 32.8105 15.8266 32.8105 19.9966C32.8105 24.1666 32.7943 24.6614 32.7194 26.3084C32.6498 27.8319 32.3952 28.6587 32.1813 29.2089C31.8982 29.9381 31.559 30.4573 31.0121 31.0039C30.4652 31.5508 29.946 31.8892 29.2165 32.1725C28.6663 32.3873 27.8388 32.6413 26.3154 32.7109C24.6682 32.7858 24.1735 32.802 20.0015 32.802C15.8293 32.802 15.3347 32.7858 13.6877 32.7109C12.1643 32.6406 11.3374 32.3861 10.7862 32.1722C10.0571 31.8889 9.53616 31.5505 8.98928 31.0036C8.4424 30.4567 8.10397 29.9372 7.82006 29.2077C7.60616 28.6575 7.35131 27.8306 7.28194 26.3072C7.20709 24.66 7.19209 24.1653 7.19209 19.9927C7.19209 15.8202 7.20709 15.328 7.28194 13.6808C7.35162 12.1573 7.60616 11.3305 7.82006 10.7797C8.10334 10.0505 8.44241 9.52969 8.98944 8.98281C9.53631 8.43594 10.0571 8.09734 10.7863 7.81359C11.3371 7.59875 12.1643 7.34484 13.6877 7.27484C15.1291 7.20969 15.6877 7.19016 18.5998 7.18687V7.19078ZM28.3421 9.78516C27.3069 9.78516 26.4671 10.6242 26.4671 11.6595C26.4671 12.6947 27.3069 13.5345 28.3421 13.5345C29.3773 13.5345 30.2171 12.6947 30.2171 11.6595C30.2171 10.6244 29.3773 9.78453 28.3421 9.78453V9.78516ZM20.0015 11.9759C15.5702 11.9759 11.9774 15.5688 11.9774 20.0002C11.9774 24.4316 15.5702 28.0227 20.0015 28.0227C24.4329 28.0227 28.0244 24.4316 28.0244 20.0002C28.0244 15.5689 24.4326 11.9759 20.0012 11.9759H20.0015ZM20.0015 14.7917C22.8779 14.7917 25.2099 17.1234 25.2099 20.0002C25.2099 22.8766 22.8779 25.2086 20.0015 25.2086C17.1249 25.2086 14.7932 22.8766 14.7932 20.0002C14.7932 17.1234 17.1249 14.7917 20.0015 14.7917Z" fill="white"/>
</g>
<defs>
<radialGradient id="paint0_radial_510_2959" cx="0" cy="0" r="1" gradientUnits="userSpaceOnUse" gradientTransform="translate(10.625 43.0808) rotate(-90) scale(39.643 36.8711)">
<stop stop-color="#FFDD55"/>
<stop offset="0.1" stop-color="#FFDD55"/>
<stop offset="0.5" stop-color="#FF543E"/>
<stop offset="1" stop-color="#C837AB"/>
</radialGradient>
<radialGradient id="paint1_radial_510_2959" cx="0" cy="0" r="1" gradientUnits="userSpaceOnUse" gradientTransform="translate(-6.70016 2.88141) rotate(78.681) scale(17.7206 73.045)">
<stop stop-color="#3771C8"/>
<stop offset="0.128" stop-color="#3771C8"/>
<stop offset="1" stop-color="#6600FF" stop-opacity="0"/>
</radialGradient>
</defs>
</svg>
