<svg width="25" height="25" viewBox="0 0 25 25" fill="none" xmlns="http://www.w3.org/2000/svg">
<g id="Like">
<path id="Vector" d="M12.3334 22.4453H12.3194C9.73645 22.3973 2.28345 15.6632 2.28345 9.28525C2.28345 6.22125 4.80845 3.53125 7.68645 3.53125C9.97645 3.53125 11.5164 5.11125 12.3324 6.26125C13.1464 5.11325 14.6864 3.53125 16.9774 3.53125C19.8574 3.53125 22.3814 6.22125 22.3814 9.28625C22.3814 15.6623 14.9274 22.3962 12.3444 22.4432H12.3334V22.4453ZM7.68745 5.03225C5.60745 5.03225 3.78445 7.02025 3.78445 9.28725C3.78445 15.0272 10.8184 20.8833 12.3344 20.9453C13.8524 20.8833 20.8844 15.0282 20.8844 9.28725C20.8844 7.02025 19.0614 5.03225 16.9814 5.03225C14.4534 5.03225 13.0414 7.96825 13.0294 7.99725C12.7994 8.55925 11.8734 8.55925 11.6424 7.99725C11.6284 7.96725 10.2174 5.03225 7.68845 5.03225H7.68745Z" fill="#536471"/>
</g>
</svg>
