<svg width="32" height="32" viewBox="0 0 32 32" fill="none" xmlns="http://www.w3.org/2000/svg">
<g id="LinkedinLogo" clip-path="url(#clip0_2222_7894)">
<path id="Vector" d="M27 4H5C4.44772 4 4 4.44772 4 5V27C4 27.5523 4.44772 28 5 28H27C27.5523 28 28 27.5523 28 27V5C28 4.44772 27.5523 4 27 4Z" stroke="#333333" stroke-width="2" stroke-linecap="round" stroke-linejoin="round"/>
<path id="Vector_2" d="M15 14V22" stroke="#333333" stroke-width="2" stroke-linecap="round" stroke-linejoin="round"/>
<path id="Vector_3" d="M11 14V22" stroke="#333333" stroke-width="2" stroke-linecap="round" stroke-linejoin="round"/>
<path id="Vector_4" d="M15 17.5C15 16.5717 15.3687 15.6815 16.0251 15.0251C16.6815 14.3687 17.5717 14 18.5 14C19.4283 14 20.3185 14.3687 20.9749 15.0251C21.6313 15.6815 22 16.5717 22 17.5V22" stroke="#333333" stroke-width="2" stroke-linecap="round" stroke-linejoin="round"/>
<path id="Vector_5" d="M11 12C11.8284 12 12.5 11.3284 12.5 10.5C12.5 9.67157 11.8284 9 11 9C10.1716 9 9.5 9.67157 9.5 10.5C9.5 11.3284 10.1716 12 11 12Z" fill="#333333"/>
</g>
<defs>
<clipPath id="clip0_2222_7894">
<rect width="32" height="32" fill="white"/>
</clipPath>
</defs>
</svg>
