<svg width="19" height="12" viewBox="0 0 19 12" fill="none" xmlns="http://www.w3.org/2000/svg">
<path id="Mobile Signal" fill-rule="evenodd" clip-rule="evenodd" d="M1.312 7.33341H2.416C3.02571 7.33341 3.51999 7.78113 3.51999 8.33341V10.3334C3.51999 10.8857 3.02571 11.3334 2.416 11.3334H1.312C0.702283 11.3334 0.208008 10.8857 0.208008 10.3334V8.33341C0.208008 7.78113 0.702283 7.33341 1.312 7.33341ZM6.46398 5.33341H7.56797C8.17769 5.33341 8.67197 5.78113 8.67197 6.33341V10.3334C8.67197 10.8857 8.17769 11.3334 7.56797 11.3334H6.46398C5.85426 11.3334 5.35999 10.8857 5.35999 10.3334V6.33341C5.35999 5.78113 5.85426 5.33341 6.46398 5.33341ZM11.616 3.00008H12.72C13.3297 3.00008 13.824 3.4478 13.824 4.00008V10.3334C13.824 10.8857 13.3297 11.3334 12.72 11.3334H11.616C11.0063 11.3334 10.512 10.8857 10.512 10.3334V4.00008C10.512 3.4478 11.0063 3.00008 11.616 3.00008ZM16.768 0.666748H17.872C18.4817 0.666748 18.976 1.11446 18.976 1.66675V10.3334C18.976 10.8857 18.4817 11.3334 17.872 11.3334H16.768C16.1582 11.3334 15.664 10.8857 15.664 10.3334V1.66675C15.664 1.11446 16.1582 0.666748 16.768 0.666748Z" fill="white"/>
</svg>
