<svg width="25" height="25" viewBox="0 0 25 25" fill="none" xmlns="http://www.w3.org/2000/svg">
<g id="Retweet" clip-path="url(#clip0_665_7698)">
<path id="Vector" d="M24.4368 16.4775C24.1448 16.1845 23.6698 16.1845 23.3768 16.4775L21.1568 18.6975V8.45753C21.1568 6.38953 19.4738 4.70753 17.4068 4.70753H11.5568C11.1428 4.70753 10.8068 5.04353 10.8068 5.45753C10.8068 5.87153 11.1428 6.20753 11.5568 6.20753H17.4068C18.6468 6.20753 19.6568 7.21753 19.6568 8.45753V18.6975L17.4368 16.4775C17.1438 16.1845 16.6688 16.1845 16.3768 16.4775C16.0848 16.7705 16.0828 17.2455 16.3768 17.5375L19.8768 21.0375C20.0218 21.1845 20.2138 21.2575 20.4068 21.2575C20.5998 21.2575 20.7898 21.1855 20.9368 21.0375L24.4368 17.5375C24.7308 17.2455 24.7308 16.7705 24.4368 16.4775ZM13.7768 19.7575H7.92685C6.68684 19.7575 5.67685 18.7475 5.67685 17.5075V7.26753L7.89684 9.48753C8.04484 9.63453 8.23685 9.70753 8.42884 9.70753C8.62084 9.70753 8.81284 9.63453 8.95884 9.48753C9.25184 9.19453 9.25184 8.71953 8.95884 8.42753L5.45884 4.92753C5.16584 4.63353 4.69085 4.63353 4.39884 4.92753L0.898845 8.42753C0.604845 8.71953 0.604845 9.19453 0.898845 9.48753C1.19284 9.78053 1.66584 9.78053 1.95884 9.48753L4.17884 7.26753V17.5075C4.17884 19.5755 5.86185 21.2575 7.92884 21.2575H13.7788C14.1928 21.2575 14.5288 20.9215 14.5288 20.5075C14.5288 20.0935 14.1918 19.7575 13.7788 19.7575H13.7768Z" fill="#536471"/>
</g>
<defs>
<clipPath id="clip0_665_7698">
<rect width="24" height="24" fill="white" transform="translate(0.666626 0.806641)"/>
</clipPath>
</defs>
</svg>
