<svg width="24" height="25" viewBox="0 0 24 25" fill="none" xmlns="http://www.w3.org/2000/svg">
<g id="Share">
<path id="Vector" d="M17.5295 8.27639L12.5295 3.27639C12.2365 2.98339 11.7615 2.98339 11.4695 3.27639L6.46952 8.27639C6.17552 8.56939 6.17552 9.04439 6.46952 9.33639C6.76352 9.62839 7.23652 9.63039 7.52952 9.33639L11.2495 5.61639V15.8064C11.2495 16.2204 11.5855 16.5564 11.9995 16.5564C12.4135 16.5564 12.7495 16.2204 12.7495 15.8064V5.61639L16.4695 9.33639C16.6155 9.48339 16.8075 9.55639 16.9995 9.55639C17.1915 9.55639 17.3835 9.48439 17.5295 9.33639C17.8225 9.04339 17.8225 8.56939 17.5295 8.27639Z" fill="#536471"/>
<path id="Vector_2" d="M19.708 22.7506H4.292C3.028 22.7506 2 21.7226 2 20.4586V14.8066C2 14.3926 2.336 14.0566 2.75 14.0566C3.164 14.0566 3.5 14.3926 3.5 14.8066V20.4586C3.5 20.8956 3.855 21.2506 4.292 21.2506H19.708C20.145 21.2506 20.5 20.8956 20.5 20.4586V14.8066C20.5 14.3926 20.836 14.0566 21.25 14.0566C21.664 14.0566 22 14.3926 22 14.8066V20.4586C22 21.7226 20.972 22.7506 19.708 22.7506Z" fill="#536471"/>
</g>
</svg>
