<svg width="60" height="60" viewBox="0 0 60 60" fill="none" xmlns="http://www.w3.org/2000/svg">
<g id="Group 34454">
<circle id="Ellipse 2042" cx="30" cy="30" r="30" fill="white"/>
<path id="Vector" d="M36.3605 46.2627L21.403 31.3255C21.2577 31.1803 21.1542 31.0302 21.0925 30.8752C21.0308 30.7202 21 30.5486 21 30.3605C21 30.1724 21.0308 30.0008 21.0925 29.8458C21.1542 29.6908 21.2577 29.5407 21.403 29.3955L36.3774 14.4323C36.6581 14.1441 37.0129 14 37.4417 14C37.8706 14 38.2341 14.1527 38.532 14.4582C38.8383 14.757 38.9914 15.1204 38.9914 15.5486C38.9914 15.9767 38.8383 16.3439 38.532 16.6501L24.8217 30.3605L38.549 44.0878C38.8612 44.4076 39.0114 44.7725 38.9993 45.1826C38.9873 45.5927 38.8285 45.9467 38.523 46.2447C38.2243 46.5509 37.8609 46.704 37.4327 46.704C37.0046 46.704 36.6471 46.5569 36.3605 46.2627Z" fill="black"/>
</g>
</svg>
