<svg width="60" height="60" viewBox="0 0 60 60" fill="none" xmlns="http://www.w3.org/2000/svg">
<g id="Group 34455">
<circle id="Ellipse 2042" cx="30" cy="30" r="30" transform="rotate(-180 30 30)" fill="white"/>
<path id="Vector" d="M23.6395 13.7373L38.597 28.6745C38.7423 28.8197 38.8458 28.9698 38.9075 29.1248C38.9692 29.2798 39 29.4514 39 29.6395C39 29.8276 38.9692 29.9992 38.9075 30.1542C38.8458 30.3092 38.7423 30.4593 38.597 30.6045L23.6226 45.5677C23.3419 45.8559 22.9871 46 22.5583 46C22.1294 46 21.7659 45.8473 21.468 45.5418C21.1617 45.243 21.0086 44.8796 21.0086 44.4514C21.0086 44.0233 21.1617 43.6561 21.468 43.3499L35.1783 29.6395L21.451 15.9122C21.1388 15.5924 20.9886 15.2275 21.0007 14.8174C21.0127 14.4073 21.1715 14.0533 21.477 13.7553C21.7757 13.4491 22.1391 13.296 22.5673 13.296C22.9954 13.296 23.3529 13.4431 23.6395 13.7373Z" fill="black"/>
</g>
</svg>
