<svg width="21" height="21" viewBox="0 0 21 21" fill="none" xmlns="http://www.w3.org/2000/svg">
<path id="Vector" d="M10.3308 15.5C10.5232 15.5 10.6832 15.4366 10.811 15.3099C10.9387 15.1831 11.0025 15.0261 11.0025 14.8387V10.1086C11.0025 9.92125 10.9375 9.76421 10.8073 9.63747C10.6772 9.51073 10.5159 9.44736 10.3236 9.44736C10.1312 9.44736 9.97117 9.51073 9.84346 9.63747C9.71574 9.76421 9.65188 9.92125 9.65188 10.1086V14.8387C9.65188 15.0261 9.71695 15.1831 9.84708 15.3099C9.97721 15.4366 10.1385 15.5 10.3308 15.5ZM10.2863 7.72404C10.5063 7.72404 10.691 7.65239 10.8404 7.50907C10.9898 7.36575 11.0646 7.18817 11.0646 6.97631C11.0646 6.75452 10.9901 6.56998 10.8412 6.4227C10.6922 6.27544 10.5077 6.2018 10.2875 6.2018C10.0634 6.2018 9.87772 6.27578 9.7306 6.42373C9.58347 6.57167 9.5099 6.755 9.5099 6.9737C9.5099 7.1863 9.58431 7.3645 9.73313 7.50831C9.88193 7.65213 10.0663 7.72404 10.2863 7.72404ZM10.2938 20.5C8.87985 20.5 7.5535 20.2375 6.31475 19.7126C5.07597 19.1877 3.99439 18.4724 3.07001 17.5667C2.14561 16.661 1.41525 15.602 0.878935 14.3897C0.34262 13.1774 0.0744629 11.8796 0.0744629 10.4964C0.0744629 9.11315 0.342504 7.81397 0.878586 6.59883C1.41467 5.38371 2.14519 4.32603 3.07014 3.4258C3.9951 2.52555 5.07664 1.81286 6.31477 1.28771C7.5529 0.762572 8.87829 0.5 10.2909 0.5C11.7036 0.5 13.0304 0.762458 14.2714 1.28737C15.5124 1.81229 16.5926 2.52465 17.5119 3.42448C18.4313 4.32433 19.1592 5.38248 19.6955 6.59894C20.2318 7.81538 20.5 9.11359 20.5 10.4936C20.5 11.8781 20.232 13.1768 19.6959 14.3897C19.1598 15.6027 18.4323 16.6607 17.5133 17.5636C16.5943 18.4666 15.5136 19.1817 14.2713 19.709C13.029 20.2363 11.7031 20.5 10.2938 20.5ZM10.2927 19.1775C12.758 19.1775 14.8504 18.3338 16.5699 16.6464C18.2896 14.9591 19.1494 12.9085 19.1494 10.4946C19.1494 8.08074 18.2908 6.03193 16.5738 4.34817C14.8568 2.66439 12.7612 1.8225 10.2872 1.8225C7.82568 1.8225 5.73327 2.66314 4.01002 4.34441C2.28674 6.02567 1.4251 8.07754 1.4251 10.5C1.4251 12.9103 2.28674 14.9591 4.01002 16.6464C5.73327 18.3338 7.82751 19.1775 10.2927 19.1775Z" fill="#141416"/>
</svg>
