<svg width="54" height="31" viewBox="0 0 54 31" fill="none" xmlns="http://www.w3.org/2000/svg">
<g id="Group">
<path id="Vector" d="M52.908 0.534704C51.1927 2.90268 49.4358 4.59012 47.0054 6.20118C45.1235 7.44419 42.3805 8.90942 41.4569 9.15941C40.1584 9.51357 40.2487 9.51357 29.7907 9.51357C23.4437 9.51357 19.8257 9.54135 19.4438 9.58301C18.0411 9.75662 16.3189 10.326 14.7981 11.1177C13.4787 11.8052 12.8815 12.2357 12.0135 13.1176C9.68024 15.4717 8.49278 18.3744 8.63166 21.3465C8.75666 23.8048 9.73579 25.9297 11.6246 27.8116C13.4648 29.6448 15.3675 30.5129 18.4022 30.9156C19.3882 31.0406 21.3326 31.0267 22.2909 30.874C23.9089 30.6309 25.8047 30.1309 26.7144 29.7212L27.1658 29.5129L27.513 29.8254C27.7074 29.999 28.0963 30.2559 28.3879 30.3948C28.9088 30.6517 28.9296 30.6587 29.7143 30.6587C30.4573 30.6587 30.5476 30.6448 30.874 30.4712C31.0684 30.367 31.3253 30.1795 31.4365 30.0476L31.6517 29.8046L31.6934 28.3532C31.7767 25.6103 31.8045 24.5339 31.8809 20.4993L31.9642 16.4439L31.7837 16.2703L31.6031 16.0897L28.7004 16.1036C27.0616 16.1106 25.77 16.1453 25.7353 16.18C25.6936 16.2217 25.8741 16.43 26.1866 16.7147C27.8116 18.2008 28.4296 19.2424 28.6102 20.8049C28.9643 23.9228 26.2838 26.7908 22.3951 27.4644C20.9507 27.7143 19.0549 27.5755 17.7355 27.1241C14.1523 25.9019 12.2218 22.8812 13.0968 19.8604C13.319 19.0896 13.9718 17.9855 14.5828 17.3397C15.6731 16.18 16.9508 15.5759 19.3049 15.1245L20.1035 14.9717L30.7629 14.9509C38.2418 14.9301 41.5958 14.9439 42.0055 14.9995C43.3319 15.1731 46.3735 16.8605 48.665 18.7008C50.2136 19.9438 52.0885 21.8951 52.9982 23.2284C53.3454 23.7423 53.394 23.7839 53.6163 23.7839H53.8524L53.8732 11.9996C53.8871 1.36106 53.8801 0.208326 53.776 0.111107C53.7204 0.0486088 53.5815 0 53.4843 0C53.3316 0 53.2274 0.0972195 52.908 0.534704ZM36.2002 10.9788C37.0335 11.208 37.4015 12.2496 36.9154 12.9857C36.2557 13.9787 34.6238 13.5829 34.5266 12.4024C34.5127 12.201 34.5336 11.9232 34.5752 11.7913C34.6794 11.4857 35.0474 11.1246 35.3877 11.0066C35.721 10.8885 35.8599 10.8816 36.2002 10.9788Z" fill="black"/>
<path id="Vector_2" d="M1.77077 7.13169C0.97219 7.42335 0.388876 8.02055 0.138884 8.81219C0.00694421 9.2219 0 9.43717 0 12.3537C0 15.7633 0.0138884 15.9022 0.416653 16.5342C0.874971 17.2355 1.57634 17.6452 2.43742 17.6938C3.79848 17.7702 4.87484 16.923 5.16649 15.5342L5.20816 15.3467H7.04143H8.88165L9.30524 14.6314C9.90939 13.6384 10.4858 12.9301 11.3677 12.0829C12.3051 11.1871 13.1246 10.5899 14.2842 9.98576L15.1731 9.51355H10.201H5.22899L5.15261 9.13857C4.98594 8.30526 4.4443 7.6039 3.69432 7.24974C3.1735 6.99975 2.29853 6.94419 1.77077 7.13169Z" fill="black"/>
<path id="Vector_3" d="M35.0336 16.0967C34.8391 16.1661 34.5475 16.2981 34.3739 16.4022C33.8183 16.7355 33.8392 16.6939 34.0475 16.9717C34.3392 17.3536 34.8391 18.4369 35.0336 19.1313C35.3183 20.1382 35.4224 20.8604 35.4641 22.1659C35.5405 24.4228 35.1863 26.7838 34.3461 29.6379L34.1794 30.2143L34.4016 30.4434C34.7836 30.8462 35.1655 30.999 35.7974 30.999C36.4502 30.992 36.9988 30.8115 37.7279 30.3532C38.4085 29.9226 38.7487 29.3879 39.0195 28.3254C39.6029 26.0477 39.1584 20.8049 38.1237 17.673C37.8599 16.8744 37.7279 16.6731 37.3182 16.4022C36.6724 15.9717 35.7488 15.8467 35.0336 16.0967Z" fill="black"/>
</g>
</svg>
