<svg width="40" height="40" viewBox="0 0 40 40" fill="none" xmlns="http://www.w3.org/2000/svg">
<g id="Group 34405">
<g id="Group 34401">
<path id="Vector" d="M30.625 0H9.375C4.19733 0 0 4.19733 0 9.375V30.625C0 35.8027 4.19733 40 9.375 40H30.625C35.8027 40 40 35.8027 40 30.625V9.375C40 4.19733 35.8027 0 30.625 0Z" fill="#1D9BF0"/>
<path id="Vector_2" d="M31.2456 14.6892C31.2628 14.9372 31.2628 15.1851 31.2628 15.4355C31.2628 23.06 25.4584 31.8534 14.8448 31.8534V31.8487C11.7094 31.8533 8.63891 30.9553 6 29.262C6.45594 29.3169 6.91406 29.3442 7.37344 29.3453C9.97213 29.3473 12.4961 28.4757 14.5397 26.8705C13.3356 26.8477 12.1688 26.4492 11.2023 25.7308C10.2357 25.0123 9.51789 24.0098 9.14906 22.8634C10.0136 23.0301 10.9048 22.9961 11.7541 22.7641C9.06219 22.2201 7.12547 19.855 7.12547 17.1081V17.035C7.92796 17.482 8.82606 17.7296 9.74422 17.7572C7.20891 16.0626 6.42734 12.6897 7.95828 10.0525C9.40692 11.8351 11.2144 13.2931 13.2632 14.3317C15.312 15.3703 17.5564 15.9663 19.8506 16.0809C19.6219 15.0963 19.6557 14.0689 19.9486 13.1014C20.2415 12.1339 20.7833 11.2603 21.5198 10.568C23.8439 8.38327 27.4991 8.49531 29.6838 10.8181C30.9759 10.563 32.2151 10.0893 33.348 9.41734C32.9172 10.7534 32.0158 11.8874 30.8114 12.6086C31.9553 12.4738 33.0723 12.1676 34.125 11.7003C33.3506 12.86 32.3756 13.872 31.2456 14.6892Z" fill="white"/>
</g>
</g>
</svg>
