<svg width="26" height="26" viewBox="0 0 26 26" fill="none" xmlns="http://www.w3.org/2000/svg">
<path id="Vector" d="M22.0112 3.73439C20.8273 2.55045 19.4217 1.61129 17.8748 0.970538C16.3279 0.329789 14.67 0 12.9956 0C9.61408 0 6.37106 1.3433 3.97997 3.73439C1.58888 6.12549 0.245575 9.3685 0.245575 12.75C0.245575 16.1315 1.58888 19.3746 3.97997 21.7656C6.37106 24.1567 9.61408 25.5 12.9956 25.5C16.3771 25.5 19.6201 24.1567 22.0112 21.7656C24.4023 19.3746 25.7456 16.1315 25.7456 12.75C25.7456 9.3685 24.4023 6.12549 22.0112 3.73439ZM20.9512 20.7056C19.3779 22.279 17.3733 23.3504 15.191 23.7845C13.0087 24.2186 10.7468 23.9958 8.6911 23.1443C6.63543 22.2928 4.87843 20.8508 3.64227 19.0008C2.40611 17.1507 1.74632 14.9757 1.74632 12.7506C1.74632 10.5256 2.40611 8.35054 3.64227 6.50049C4.87843 4.65044 6.63543 3.2085 8.6911 2.35701C10.7468 1.50552 13.0087 1.28273 15.191 1.7168C17.3733 2.15087 19.3779 3.22232 20.9512 4.79564C23.058 6.90705 24.2411 9.76795 24.2411 12.7506C24.2411 15.7333 23.058 18.5942 20.9512 20.7056ZM17.5262 17.2206C17.5999 17.2893 17.659 17.3721 17.7 17.4641C17.741 17.5561 17.763 17.6554 17.7648 17.7561C17.7666 17.8568 17.7481 17.9569 17.7103 18.0502C17.6726 18.1436 17.6165 18.2285 17.5453 18.2997C17.474 18.3709 17.3892 18.427 17.2958 18.4648C17.2024 18.5025 17.1024 18.521 17.0017 18.5192C16.901 18.5175 16.8017 18.4954 16.7097 18.4544C16.6177 18.4134 16.5349 18.3543 16.4662 18.2806L12.9962 14.8119L9.52622 18.2806C9.38404 18.4131 9.196 18.4852 9.0017 18.4818C8.8074 18.4784 8.62201 18.3997 8.4846 18.2623C8.34719 18.1249 8.26847 17.9395 8.26504 17.7452C8.26161 17.5509 8.33374 17.3628 8.46622 17.2206L12.4662 13.2206C12.6068 13.0802 12.7975 13.0013 12.9962 13.0013C13.195 13.0013 13.3856 13.0802 13.5262 13.2206L17.5262 17.2206ZM17.5262 10.2206C17.5999 10.2893 17.659 10.3721 17.7 10.4641C17.741 10.5561 17.763 10.6554 17.7648 10.7561C17.7666 10.8568 17.7481 10.9569 17.7103 11.0502C17.6726 11.1436 17.6165 11.2285 17.5453 11.2997C17.474 11.3709 17.3892 11.427 17.2958 11.4648C17.2024 11.5025 17.1024 11.521 17.0017 11.5192C16.901 11.5175 16.8017 11.4954 16.7097 11.4544C16.6177 11.4134 16.5349 11.3543 16.4662 11.2806L12.9962 7.81189L9.52622 11.2806C9.38404 11.4131 9.196 11.4852 9.0017 11.4818C8.8074 11.4784 8.62201 11.3997 8.4846 11.2623C8.34719 11.1249 8.26847 10.9395 8.26504 10.7452C8.26161 10.5509 8.33374 10.3628 8.46622 10.2206L12.4662 6.22064C12.6068 6.08019 12.7975 6.0013 12.9962 6.0013C13.195 6.0013 13.3856 6.08019 13.5262 6.22064L17.5262 10.2206Z" fill="black"/>
</svg>
