<svg width="26" height="26" viewBox="0 0 26 26" fill="none" xmlns="http://www.w3.org/2000/svg">
<path id="Vector" d="M3.80269 22.1962C5.6212 24.0132 7.9376 25.2503 10.4591 25.751C12.9805 26.2517 15.5938 25.9936 17.9686 25.0094C20.3434 24.0251 22.3731 22.3589 23.8011 20.2213C25.2291 18.0837 25.9912 15.5707 25.9912 13C25.9912 10.4293 25.2291 7.91632 23.8011 5.77872C22.3731 3.64112 20.3434 1.97487 17.9686 0.990606C15.5938 0.00634575 12.9805 -0.251736 10.4591 0.248987C7.9376 0.74971 5.6212 1.98675 3.80269 3.80374C1.36755 6.24479 1.90735e-06 9.55201 1.90735e-06 13C1.90735e-06 16.448 1.36755 19.7552 3.80269 22.1962ZM8.29019 7.29C8.38306 7.19702 8.49335 7.12326 8.61475 7.07294C8.73615 7.02261 8.86627 6.99671 8.99769 6.99671C9.1291 6.99671 9.25923 7.02261 9.38063 7.07294C9.50203 7.12326 9.61231 7.19702 9.70519 7.29L13.0002 10.585L16.2939 7.29C16.4816 7.10235 16.7361 6.99694 17.0014 6.99694C17.2668 6.99694 17.5213 7.10235 17.7089 7.29C17.8966 7.47764 18.002 7.73213 18.002 7.99749C18.002 8.26286 17.8966 8.51735 17.7089 8.70499L13.7089 12.705C13.6161 12.798 13.5058 12.8717 13.3844 12.9221C13.263 12.9724 13.1329 12.9983 13.0014 12.9983C12.87 12.9983 12.7399 12.9724 12.6185 12.9221C12.4971 12.8717 12.3868 12.798 12.2939 12.705L8.29394 8.70499C8.20071 8.61237 8.12666 8.50228 8.07602 8.38101C8.02537 8.25974 7.99912 8.12969 7.99877 7.99827C7.99842 7.86686 8.02398 7.73666 8.07399 7.61513C8.12399 7.4936 8.19746 7.38311 8.29019 7.29ZM8.29019 14.29C8.38306 14.197 8.49335 14.1233 8.61475 14.0729C8.73615 14.0226 8.86627 13.9967 8.99769 13.9967C9.1291 13.9967 9.25923 14.0226 9.38063 14.0729C9.50203 14.1233 9.61231 14.197 9.70519 14.29L13.0002 17.5887L16.2939 14.2937C16.4816 14.1061 16.7361 14.0007 17.0014 14.0007C17.2668 14.0007 17.5213 14.1061 17.7089 14.2937C17.8966 14.4814 18.002 14.7359 18.002 15.0012C18.002 15.2666 17.8966 15.5211 17.7089 15.7087L13.7089 19.7087C13.6161 19.8017 13.5058 19.8755 13.3844 19.9258C13.263 19.9761 13.1329 20.002 13.0014 20.002C12.87 20.002 12.7399 19.9761 12.6185 19.9258C12.4971 19.8755 12.3868 19.8017 12.2939 19.7087L8.29394 15.7087C8.20071 15.6161 8.12666 15.506 8.07602 15.3848C8.02537 15.2635 7.99912 15.1334 7.99877 15.002C7.99842 14.8706 8.02398 14.7404 8.07399 14.6189C8.12399 14.4973 8.19746 14.3869 8.29019 14.2937V14.29Z" fill="black"/>
</svg>
