<svg width="18" height="12" viewBox="0 0 18 12" fill="none" xmlns="http://www.w3.org/2000/svg">
<path id="Wifi" fill-rule="evenodd" clip-rule="evenodd" d="M8.9567 2.60789C11.403 2.60799 13.7558 3.45943 15.5288 4.98623C15.6623 5.1041 15.8757 5.10261 16.0072 4.98289L17.2834 3.81623C17.35 3.7555 17.3871 3.67325 17.3866 3.58767C17.386 3.50209 17.3479 3.42024 17.2805 3.36023C12.627 -0.67932 5.28564 -0.67932 0.632164 3.36023C0.564755 3.42019 0.526508 3.50202 0.525887 3.5876C0.525265 3.67318 0.56232 3.75546 0.628852 3.81623L1.90544 4.98289C2.03685 5.10279 2.25042 5.10428 2.38385 4.98623C4.15704 3.45933 6.51011 2.60789 8.9567 2.60789ZM8.95669 6.40356C10.3008 6.40348 11.5969 6.85602 12.5933 7.67323C12.728 7.78921 12.9403 7.78669 13.0717 7.66756L14.3464 6.50089C14.4136 6.4397 14.4508 6.35668 14.4498 6.27042C14.4489 6.18415 14.4098 6.10184 14.3413 6.04189C11.3073 3.48551 6.60869 3.48551 3.57468 6.04189C3.50614 6.10184 3.46704 6.18419 3.46614 6.27048C3.46524 6.35678 3.50262 6.43979 3.56989 6.50089L4.84428 7.66756C4.97564 7.78669 5.18792 7.78921 5.32268 7.67323C6.31835 6.85656 7.61347 6.40406 8.95669 6.40356ZM11.4065 9.18789C11.4746 9.12729 11.5122 9.04389 11.5102 8.95738C11.5083 8.87087 11.467 8.78893 11.3962 8.73089C9.98794 7.65201 7.92546 7.65201 6.51723 8.73089C6.44633 8.78888 6.40499 8.8708 6.40297 8.95731C6.40095 9.04381 6.43843 9.12724 6.50656 9.18789L8.71198 11.2036C8.77662 11.2628 8.86475 11.2961 8.9567 11.2961C9.04865 11.2961 9.13678 11.2628 9.20142 11.2036L11.4065 9.18789Z" fill="white"/>
</svg>
